<svg xmlns="http://www.w3.org/2000/svg" version="1.1" xmlns:xlink="http://www.w3.org/1999/xlink" xmlns:svgjs="http://svgjs.dev/svgjs" width="100%" height="100%" viewBox="0 0 4000 4000"><rect width="0" height="0" x="0" y="0" fill="#ffffff"/><g><circle r="166.66666666666666" cx="410.50678507486975" cy="432.7289240343855" fill="#292826" transform="matrix(0.5126312313921921,0,0,0.512631231392192,0,78.16966271600106)"/><path d="M399.5971674068994 507.72890100205433Q385.574669719874 507.72890100205433 374.7814194255038 501.0085753470691Q363.98816913113365 494.31734201093667 358.0242437663199 482.2731220058982Q352.0603184015062 470.2289020008598 352.0603184015062 454.5190498203749L352.0603184015062 454.5190498203749L352.0603184015062 410.9387561789557Q352.0603184015062 395.2289039984708 358.0242437663199 383.09740703687413Q363.98816913113365 370.9368177564247 374.98506565747306 364.33286137685053Q385.98196218381247 357.72890499727635 400.44084465362914 357.72890499727635L400.44084465362914 357.72890499727635L422.63828393827725 357.72890499727635Q436.25348916136414 357.72890499727635 446.6394469917958 363.60555340553174Q456.9963125033748 369.48220181378724 462.75659163621924 380.15908283274644Q468.5168707690637 390.83596385170557 468.5168707690637 404.65481530676175L468.5168707690637 404.65481530676175L453.4470496033393 404.65481530676175Q453.4470496033393 389.78864037300656 444.95209249833636 380.6827445720959Q436.4862277121862 371.5768487711852 422.63828393827725 371.5768487711852L422.63828393827725 371.5768487711852L400.44084465362914 371.5768487711852Q385.574669719874 371.5768487711852 376.5560508755216 382.34100674670265Q367.5665243500219 393.13425704107283 367.5665243500219 410.9387561789557L367.5665243500219 410.9387561789557L367.5665243500219 454.5190498203749Q367.5665243500219 472.3235489582578 376.3524046435523 483.11679925262797Q385.1673772559355 493.8809572281454 399.5971674068994 493.8809572281454L399.5971674068994 493.8809572281454L422.23099147433874 493.8809572281454Q436.4862277121862 493.8809572281454 445.1557387303056 483.8441072239467Q453.8543420672778 473.77816490089526 453.8543420672778 457.45737402450266L453.8543420672778 457.45737402450266L468.9532555518549 457.45737402450266Q468.9532555518549 472.3235489582578 463.07660714359946 483.7277379485357Q457.199958735344 495.1610192576664 446.6394469917958 501.44496012986036Q436.0498429293949 507.72890100205433 422.23099147433874 507.72890100205433L422.23099147433874 507.72890100205433L399.5971674068994 507.72890100205433Z " fill="#ffffff" transform="matrix(0.5126312313921921,0,0,0.512631231392192,0,78.16966271600106)"/><path d="M707.9149098476283 507.3227132381936Q693.9303839418131 507.3227132381936 683.1663608898266 500.6205856775228Q672.40233783784 493.9474716560756 666.454562296985 481.9358664174707Q660.5067867561299 469.92426117886583 660.5067867561299 454.2569499980769L660.5067867561299 454.2569499980769L660.5067867561299 410.79466824099933Q660.5067867561299 395.12735706021033 666.454562296985 383.0287112039344Q672.40233783784 370.9010518084348 683.3694556643924 364.31497840465863Q694.3365734909447 357.72890500088255 708.7563024851153 357.72890500088255L708.7563024851153 357.72890500088255L730.8936329127856 357.72890500088255Q744.4719692694694 357.72890500088255 754.8298027723243 363.58963992406655Q765.1586227359556 369.4503748472506 770.9033035022447 380.09834374234237Q776.6479842685341 390.74631263743413 776.6479842685341 404.5277437686837L776.6479842685341 404.5277437686837L761.6189709506663 404.5277437686837Q761.6189709506663 389.7018252253815 753.1470174973507 380.62058744836867Q744.7040775832588 371.5393496713558 730.8936329127856 371.5393496713558L730.8936329127856 371.5393496713558L708.7563024851153 371.5393496713558Q693.9303839418131 371.5393496713558 684.9361867824713 382.2743591841186Q675.9710031623531 393.0383822361051 675.9710031623531 410.79466824099933L675.9710031623531 410.79466824099933L675.9710031623531 454.2569499980769Q675.9710031623531 472.01323600297104 684.7330920079054 482.77725905495754Q693.5241943926816 493.51226856772035 707.9149098476283 493.51226856772035L707.9149098476283 493.51226856772035L730.487443363654 493.51226856772035Q744.7040775832588 493.51226856772035 753.3501122719164 483.5025975355496Q762.0251604997978 473.4639129641552 762.0251604997978 457.1873174596689L762.0251604997978 457.1873174596689L777.0831873568894 457.1873174596689Q777.0831873568894 472.01323600297104 771.2224524337054 483.3865433786549Q765.3617175105213 494.7888642935624 754.8298027723243 501.05578876587805Q744.2688744949036 507.3227132381936 730.487443363654 507.3227132381936L730.487443363654 507.3227132381936L707.9149098476283 507.3227132381936ZM831.8027223327562 507.3227132381936Q816.5416007010987 507.3227132381936 807.4603629240859 499.3730034909044Q798.3791251470728 491.42329374361515 798.3791251470728 478.0770657007209L798.3791251470728 478.0770657007209L798.3791251470728 471.37493814005Q798.3791251470728 458.23180487172147 807.7795118555463 450.28209512443226Q817.1798985640197 442.33238537714305 832.6441149702429 442.33238537714305L832.6441149702429 442.33238537714305L846.0193565523608 442.33238537714305Q852.8955653483739 442.33238537714305 860.2069772327421 444.4213602012482Q867.5183891171101 446.5103350253534 872.7408261773732 450.0790003498665L872.7408261773732 450.0790003498665L872.7408261773732 432.7289038941039Q872.7408261773732 423.9668150485515 867.3152943425445 418.425229056828Q861.8897625077158 412.8836430651045 852.8955653483739 412.8836430651045L852.8955653483739 412.8836430651045L836.1837667555322 412.8836430651045Q827.2185831354142 412.8836430651045 821.7640377613617 417.0615927133149Q816.3385059265328 421.23954236152525 816.3385059265328 428.1447646967619L816.3385059265328 428.1447646967619L801.309492608665 428.1447646967619Q801.309492608665 415.40782097756494 810.9129740917041 407.57416538717047Q820.5164555747432 399.74050979677594 836.1837667555322 399.74050979677594L836.1837667555322 399.74050979677594L852.8955653483739 399.74050979677594Q868.3597817545971 399.74050979677594 877.8762226199652 408.82174757378885Q887.3636499461096 417.9029853508017 887.3636499461096 432.7289038941039L887.3636499461096 432.7289038941039L887.3636499461096 505.63992796322L873.1760292657285 505.63992796322L873.1760292657285 491.0171041944836Q868.3597817545971 498.5316108534176 860.5261261642025 502.9126552761938Q852.692470573808 507.3227132381936 844.3365712773872 507.3227132381936L844.3365712773872 507.3227132381936L831.8027223327562 507.3227132381936ZM831.8027223327562 494.1505664306414L844.7427608265187 494.1505664306414Q854.5783506233475 494.1505664306414 862.2959520568471 488.08673673289155Q870.0425670295707 482.02290703514177 872.7408261773732 472.01323600297104L872.7408261773732 472.01323600297104L872.7408261773732 464.2666210302476Q868.5628765291627 460.3207796958267 861.1644240271236 457.91265594026095Q853.7369579858606 455.5045321846953 846.0193565523608 455.5045321846953L846.0193565523608 455.5045321846953L832.6441149702429 455.5045321846953Q824.0851208992564 455.5045321846953 818.7466296820986 459.8855766074715Q813.4081384649409 464.2666210302476 813.4081384649409 471.37493814005L813.4081384649409 471.37493814005L813.4081384649409 478.0770657007209Q813.4081384649409 485.388477585089 818.427480750638 489.7695220078652Q823.4468230363353 494.1505664306414 831.8027223327562 494.1505664306414L831.8027223327562 494.1505664306414ZM958.8239970540416 505.63992796322Q942.3152932357658 505.63992796322 935.0909219690685 498.5316108534176Q927.8955642415953 491.42329374361515 927.8955642415953 475.14669823912885L927.8955642415953 475.14669823912885L927.8955642415953 414.7695231146439L909.50098037378 414.7695231146439L909.50098037378 401.3942815325259L927.8955642415953 401.3942815325259L927.8955642415953 369.85656439638217L942.924577559463 369.85656439638217L942.924577559463 401.3942815325259L970.0812502728307 401.3942815325259L970.0812502728307 414.7695231146439L942.924577559463 414.7695231146439L942.924577559463 475.14669823912885Q942.924577559463 484.34399017303645 946.5802835016472 488.28983150745734Q950.2359894438313 492.26468638110197 958.8239970540416 492.26468638110197L958.8239970540416 492.26468638110197L970.0812502728307 492.26468638110197L970.0812502728307 505.63992796322L958.8239970540416 505.63992796322ZM1025.2359883370527 507.3227132381936Q1010.0038802446189 507.3227132381936 1000.8936289283823 499.3730034909044Q991.8123911513695 491.42329374361515 991.8123911513695 478.0770657007209L991.8123911513695 478.0770657007209L991.8123911513695 471.37493814005Q991.8123911513695 458.23180487172147 1001.2127778598427 450.28209512443226Q1010.6131645683162 442.33238537714305 1026.0773809745392 442.33238537714305L1026.0773809745392 442.33238537714305L1039.4526225566574 442.33238537714305Q1046.3288313526705 442.33238537714305 1053.6402432370387 444.4213602012482Q1060.951655121407 446.5103350253534 1066.1740921816695 450.0790003498665L1066.1740921816695 450.0790003498665L1066.1740921816695 432.7289038941039Q1066.1740921816695 423.9668150485515 1060.7485603468408 418.425229056828Q1055.3230285120121 412.8836430651045 1046.3288313526705 412.8836430651045L1046.3288313526705 412.8836430651045L1029.6170327598288 412.8836430651045Q1020.6518491397106 412.8836430651045 1015.226317304882 417.0615927133149Q1009.7717719308295 421.23954236152525 1009.7717719308295 428.1447646967619L1009.7717719308295 428.1447646967619L994.7427586129614 428.1447646967619Q994.7427586129614 415.40782097756494 1004.3462400960005 407.57416538717047Q1013.9497215790399 399.74050979677594 1029.6170327598288 399.74050979677594L1029.6170327598288 399.74050979677594L1046.3288313526705 399.74050979677594Q1061.7930477588934 399.74050979677594 1071.3094886242616 408.82174757378885Q1080.796915950406 417.9029853508017 1080.796915950406 432.7289038941039L1080.796915950406 432.7289038941039L1080.796915950406 505.63992796322L1066.609295270025 505.63992796322L1066.609295270025 491.0171041944836Q1061.7930477588934 498.5316108534176 1053.959392168499 502.9126552761938Q1046.1257365781044 507.3227132381936 1037.769837281684 507.3227132381936L1037.769837281684 507.3227132381936L1025.2359883370527 507.3227132381936ZM1025.2359883370527 494.1505664306414L1038.2050403700391 494.1505664306414Q1048.011616627644 494.1505664306414 1055.729218061144 488.08673673289155Q1063.4758330338673 482.02290703514177 1066.1740921816695 472.01323600297104L1066.1740921816695 472.01323600297104L1066.1740921816695 464.2666210302476Q1061.9961425334595 460.3207796958267 1054.59769003142 457.91265594026095Q1047.170223990157 455.5045321846953 1039.4526225566574 455.5045321846953L1039.4526225566574 455.5045321846953L1026.0773809745392 455.5045321846953Q1017.5183869035528 455.5045321846953 1012.1798956863951 459.8855766074715Q1006.8704180084611 464.2666210302476 1006.8704180084611 471.37493814005L1006.8704180084611 471.37493814005L1006.8704180084611 478.0770657007209Q1006.8704180084611 485.388477585089 1011.8607467549347 489.7695220078652Q1016.8800890406318 494.1505664306414 1025.2359883370527 494.1505664306414L1025.2359883370527 494.1505664306414ZM1140.1296036628382 505.63992796322Q1124.6653872566153 505.63992796322 1117.9922732351679 499.0538545594439Q1111.319159213721 492.46778115566775 1111.319159213721 477.23567306323406L1111.319159213721 477.23567306323406L1111.319159213721 359.4116902758562L1126.3481725315887 359.4116902758562L1126.3481725315887 477.23567306323406Q1126.3481725315887 485.1563692712996 1129.5976889246413 488.7250345958126Q1132.8181917784705 492.26468638110197 1140.1296036628382 492.26468638110197L1140.1296036628382 492.26468638110197L1147.2379207726408 492.26468638110197L1147.2379207726408 505.63992796322L1140.1296036628382 505.63992796322ZM1178.572543134219 385.72697035173695Q1173.5532008485216 385.72697035173695 1170.4197386123637 382.59350811557914Q1167.286276376206 379.46004587942133 1167.286276376206 374.44070359372415L1167.286276376206 374.44070359372415Q1167.286276376206 369.4503748472506 1170.4197386123637 366.3169126110928Q1173.5532008485216 363.183450374935 1178.572543134219 363.183450374935L1178.572543134219 363.183450374935Q1183.5918854199158 363.183450374935 1186.7253476560736 366.3169126110928Q1189.8588098922314 369.4503748472506 1189.8588098922314 374.44070359372415L1189.8588098922314 374.44070359372415Q1189.8588098922314 379.46004587942133 1186.7253476560736 382.59350811557914Q1183.5918854199158 385.72697035173695 1178.572543134219 385.72697035173695L1178.572543134219 385.72697035173695ZM1171.0580364752846 505.63992796322L1171.0580364752846 401.3942815325259L1186.0870497931528 401.3942815325259L1186.0870497931528 505.63992796322L1171.0580364752846 505.63992796322ZM1221.5996218029409 505.63992796322L1221.5996218029409 401.3942815325259L1236.2224455716773 401.3942815325259L1236.2224455716773 416.8584979387491Q1241.038693082809 409.34399127981516 1248.7562945163086 404.5277437686837Q1256.502909489032 399.74050979677594 1264.220510922532 399.74050979677594L1264.220510922532 399.74050979677594L1278.4371451421366 399.74050979677594Q1292.8278605970836 399.74050979677594 1301.706003599531 409.54708605438094Q1310.5841466019779 419.3536623119859 1310.5841466019779 435.2530818065643L1310.5841466019779 435.2530818065643L1310.5841466019779 505.63992796322L1295.55513328411 505.63992796322L1295.55513328411 434.81787871820904Q1295.55513328411 425.2143972351699 1290.7388857729784 419.1505675374201Q1285.9516518010705 413.08673783967026 1278.0019420537815 413.08673783967026L1278.0019420537815 413.08673783967026L1264.6267004716633 413.08673783967026Q1254.8201242140585 413.08673783967026 1246.783373849098 420.83335281239374Q1238.7466234841381 428.5509542458935 1236.657648660033 440.6786136413931L1236.657648660033 440.6786136413931L1236.657648660033 505.63992796322L1221.5996218029409 505.63992796322ZM1348.1856934358716 507.7289027873252Q1343.195364689398 507.7289027873252 1340.0619024532402 504.59544055116737Q1336.9284402170824 501.4619783150096 1336.9284402170824 496.4426360293124L1336.9284402170824 496.4426360293124Q1336.9284402170824 491.42329374361515 1340.0619024532402 488.28983150745734Q1343.195364689398 485.1563692712996 1348.1856934358716 485.1563692712996L1348.1856934358716 485.1563692712996Q1353.2050357215685 485.1563692712996 1356.3384979577263 488.28983150745734Q1359.4719601938841 491.42329374361515 1359.4719601938841 496.4426360293124L1359.4719601938841 496.4426360293124Q1359.4719601938841 501.4619783150096 1356.3384979577263 504.59544055116737Q1353.2050357215685 507.7289027873252 1348.1856934358716 507.7289027873252L1348.1856934358716 507.7289027873252ZM1419.4429457692377 507.3227132381936Q1408.7659633349222 507.3227132381936 1400.4100640385013 502.30337095249644Q1392.0541647420805 497.2840286667992 1387.4700255447383 488.28983150745734Q1382.8858863473965 479.32464788733927 1382.8858863473965 467.4000832664054L1382.8858863473965 467.4000832664054L1382.8858863473965 442.33238537714305Q1382.8858863473965 429.79853643251187 1387.6731203193044 420.10801433180166Q1392.4893678304356 410.38847869186776 1401.2514566759883 405.04998747471Q1410.0425590607642 399.74050979677594 1421.2998122795534 399.74050979677594L1421.2998122795534 399.74050979677594L1436.7640286857763 399.74050979677594Q1443.872345795579 399.74050979677594 1450.458419199355 403.07706680749953Q1457.0444926031314 406.41362381822313 1460.990333937552 412.2743587414071L1460.990333937552 412.2743587414071L1460.990333937552 359.4116902758562L1476.048360794644 359.4116902758562L1476.048360794644 505.63992796322L1461.425537025907 505.63992796322L1461.425537025907 490.17571155699676Q1456.6092895147758 497.92232652972024 1448.8916880812762 502.62251988395695Q1441.1450731085524 507.3227132381936 1433.8336612241847 507.3227132381936L1433.8336612241847 507.3227132381936L1419.4429457692377 507.3227132381936ZM1419.849135318369 493.9474716560756L1433.4274716750529 493.9474716560756Q1440.1005856964998 493.9474716560756 1446.3675101688154 489.65346785097046Q1452.634434641131 485.388477585089 1456.6092895147758 478.48325524985245Q1460.5841443884206 471.5780329146158 1460.990333937552 464.2666210302476L1460.990333937552 464.2666210302476L1460.990333937552 437.95134095436686Q1459.539656976368 426.8971825101435 1452.7504887980258 419.9919601749069Q1445.961320619684 413.08673783967026 1436.357839136645 413.08673783967026L1436.357839136645 413.08673783967026L1421.7350153679085 413.08673783967026Q1411.0870464728168 413.08673783967026 1404.5009730690408 421.1525017438542Q1397.9148996652643 429.1892521088145 1397.9148996652643 442.33238537714305L1397.9148996652643 442.33238537714305L1397.9148996652643 467.4000832664054Q1397.9148996652643 479.1215531127735 1404.0657699806857 486.52000561481265Q1410.24565383533 493.9474716560756 1419.849135318369 493.9474716560756L1419.849135318369 493.9474716560756ZM1542.4603520776545 507.3227132381936Q1524.9361743865497 507.3227132381936 1514.2591919522347 496.9648797353387Q1503.611223057143 486.63605977170744 1503.611223057143 469.4890580905106L1503.611223057143 469.4890580905106L1503.611223057143 439.6341262293405Q1503.611223057143 421.6747454498805 1514.2591919522347 410.7076276233283Q1524.9361743865497 399.74050979677594 1542.4603520776545 399.74050979677594L1542.4603520776545 399.74050979677594L1559.6073537588513 399.74050979677594Q1576.3191523516934 399.74050979677594 1586.5609316976534 410.38847869186776Q1596.77369750439 421.03644758695947 1596.77369750439 438.5896388172879L1596.77369750439 438.5896388172879L1596.77369750439 456.95520914587945L1518.6692499142346 456.95520914587945L1518.6692499142346 469.4890580905106Q1518.6692499142346 480.3691352993918 1525.2263097787868 487.15830347773374Q1531.8123831825628 493.9474716560756 1542.4603520776545 493.9474716560756L1542.4603520776545 493.9474716560756L1558.359771572233 493.9474716560756Q1568.804645692759 493.9474716560756 1575.2746649396404 488.2027908897863Q1581.7446841865217 482.458110123497 1581.7446841865217 472.85462864045786L1581.7446841865217 472.85462864045786L1596.3675079552581 472.85462864045786Q1596.3675079552581 488.28983150745734 1585.922633834732 497.8062723728255Q1575.4777597142065 507.3227132381936 1558.359771572233 507.3227132381936L1558.359771572233 507.3227132381936L1542.4603520776545 507.3227132381936ZM1518.6692499142346 444.01517065211664L1581.7446841865217 444.01517065211664L1581.7446841865217 438.5896388172879Q1581.7446841865217 427.1002772847093 1575.6808544887722 420.10801433180166Q1569.6170247910222 413.08673783967026 1559.6073537588513 413.08673783967026L1559.6073537588513 413.08673783967026L1542.4603520776545 413.08673783967026Q1531.8123831825628 413.08673783967026 1525.2263097787868 420.3981497240385Q1518.6692499142346 427.70956160840666 1518.6692499142346 439.6341262293405L1518.6692499142346 439.6341262293405L1518.6692499142346 444.01517065211664ZM1659.23984745298 505.63992796322Q1650.4777586074274 505.63992796322 1646.5029037337831 494.9919590681282L1646.5029037337831 494.9919590681282L1610.5841421748628 401.3942815325259L1626.454548130218 401.3942815325259L1658.6305631292826 489.13122414494416L1658.8336579038487 489.13122414494416L1691.0096729029133 401.3942815325259L1706.880078858268 401.3942815325259L1666.3481645627826 505.63992796322L1659.23984745298 505.63992796322Z " fill="#292826" transform="matrix(0.5126312313921921,0,0,0.512631231392192,0,78.16966271600106)"/></g></svg>